<?xml version="1.0" encoding="UTF-8" standalone="no"?>
<!-- Created with Inkscape (http://www.inkscape.org/) -->

<svg
   xmlns:dc="http://purl.org/dc/elements/1.1/"
   xmlns:cc="http://creativecommons.org/ns#"
   xmlns:rdf="http://www.w3.org/1999/02/22-rdf-syntax-ns#"
   xmlns:svg="http://www.w3.org/2000/svg"
   xmlns="http://www.w3.org/2000/svg"
   xmlns:xlink="http://www.w3.org/1999/xlink"
   xmlns:sodipodi="http://sodipodi.sourceforge.net/DTD/sodipodi-0.dtd"
   xmlns:inkscape="http://www.inkscape.org/namespaces/inkscape"
   inkscape:export-ydpi="90"
   inkscape:export-xdpi="90"
   inkscape:export-filename="C:\Users\suarezch\Google Drive\Mis Proyectos\Helicoptero\app\src\main\res\drawable-nodpi\cambiador_gravedad_doble.png"
   sodipodi:docname="cambiador_gravedad_doble_.svg"
   inkscape:version="0.91 r13725"
   version="1.1"
   id="svg2"
   viewBox="0 0 3120 130"
   height="130"
   width="3120">
  <sodipodi:namedview
     inkscape:window-maximized="1"
     inkscape:window-y="-8"
     inkscape:window-x="-8"
     inkscape:window-height="838"
     inkscape:window-width="1450"
     units="px"
     showgrid="false"
     inkscape:current-layer="layer1"
     inkscape:document-units="px"
     inkscape:cy="10.364925"
     inkscape:cx="212.70415"
     inkscape:zoom="2"
     inkscape:pageshadow="2"
     inkscape:pageopacity="0.94117647"
     borderopacity="1.0"
     bordercolor="#666666"
     pagecolor="#00000f"
     id="base"
     inkscape:snap-grids="true" />
  <defs
     id="defs4">
    <linearGradient
       inkscape:collect="always"
       id="linearGradient4259">
      <stop
         style="stop-color:#808080;stop-opacity:1;"
         offset="0"
         id="stop4261" />
      <stop
         style="stop-color:#808080;stop-opacity:0;"
         offset="1"
         id="stop4263" />
    </linearGradient>
    <linearGradient
       inkscape:collect="always"
       xlink:href="#linearGradient4259"
       id="linearGradient4420"
       gradientUnits="userSpaceOnUse"
       gradientTransform="matrix(0,-1.1999995,0.99999999,0,642.99997,-248.47196)"
       x1="-997.36218"
       y1="72"
       x2="-992.36218"
       y2="72" />
    <linearGradient
       inkscape:collect="always"
       xlink:href="#linearGradient4259"
       id="linearGradient4422"
       gradientUnits="userSpaceOnUse"
       gradientTransform="matrix(0,1.1999995,0.99999999,0,642.99997,2145.1963)"
       x1="-997.36218"
       y1="72"
       x2="-992.36218"
       y2="72" />
    <linearGradient
       inkscape:collect="always"
       xlink:href="#linearGradient4259"
       id="linearGradient4424"
       gradientUnits="userSpaceOnUse"
       gradientTransform="matrix(0,-1.1999995,0.99999999,0,1423,-212.47208)"
       x1="-997.36218"
       y1="72"
       x2="-992.36218"
       y2="72" />
    <linearGradient
       inkscape:collect="always"
       xlink:href="#linearGradient4259"
       id="linearGradient4426"
       gradientUnits="userSpaceOnUse"
       gradientTransform="matrix(0,1.1999995,0.99999999,0,1423,2181.1963)"
       x1="-997.36218"
       y1="72"
       x2="-992.36218"
       y2="72" />
    <linearGradient
       inkscape:collect="always"
       xlink:href="#linearGradient4259"
       id="linearGradient4428"
       gradientUnits="userSpaceOnUse"
       gradientTransform="matrix(0,-1.1999995,0.99999999,0,2203,-176.47203)"
       x1="-997.36218"
       y1="72"
       x2="-992.36218"
       y2="72" />
    <linearGradient
       inkscape:collect="always"
       xlink:href="#linearGradient4259"
       id="linearGradient4430"
       gradientUnits="userSpaceOnUse"
       gradientTransform="matrix(0,1.1999995,0.99999999,0,2203,2217.1963)"
       x1="-997.36218"
       y1="72"
       x2="-992.36218"
       y2="72" />
    <linearGradient
       inkscape:collect="always"
       xlink:href="#linearGradient4259"
       id="linearGradient4888"
       gradientUnits="userSpaceOnUse"
       gradientTransform="matrix(0,1.1999995,0.99999999,0,122.99999,2121.1963)"
       x1="-997.36218"
       y1="72"
       x2="-992.36218"
       y2="72" />
    <linearGradient
       inkscape:collect="always"
       xlink:href="#linearGradient4259"
       id="linearGradient4890"
       gradientUnits="userSpaceOnUse"
       gradientTransform="matrix(0,-1.1999995,0.99999999,0,252.99999,-266.47196)"
       x1="-997.36218"
       y1="72"
       x2="-992.36218"
       y2="72" />
    <linearGradient
       inkscape:collect="always"
       xlink:href="#linearGradient4259"
       id="linearGradient4892"
       gradientUnits="userSpaceOnUse"
       gradientTransform="matrix(0,1.1999995,0.99999999,0,252.99999,2127.1963)"
       x1="-997.36218"
       y1="72"
       x2="-992.36218"
       y2="72" />
    <linearGradient
       inkscape:collect="always"
       xlink:href="#linearGradient4259"
       id="linearGradient4894"
       gradientUnits="userSpaceOnUse"
       gradientTransform="matrix(0,-1.1999995,0.99999999,0,382.99998,-260.47196)"
       x1="-997.36218"
       y1="72"
       x2="-992.36218"
       y2="72" />
    <linearGradient
       inkscape:collect="always"
       xlink:href="#linearGradient4259"
       id="linearGradient4896"
       gradientUnits="userSpaceOnUse"
       gradientTransform="matrix(0,1.1999995,0.99999999,0,382.99998,2133.1963)"
       x1="-997.36218"
       y1="72"
       x2="-992.36218"
       y2="72" />
    <linearGradient
       inkscape:collect="always"
       xlink:href="#linearGradient4259"
       id="linearGradient4898"
       gradientUnits="userSpaceOnUse"
       gradientTransform="matrix(0,-1.1999995,0.99999999,0,512.99998,-254.47196)"
       x1="-997.36218"
       y1="72"
       x2="-992.36218"
       y2="72" />
    <linearGradient
       inkscape:collect="always"
       xlink:href="#linearGradient4259"
       id="linearGradient4900"
       gradientUnits="userSpaceOnUse"
       gradientTransform="matrix(0,1.1999995,0.99999999,0,512.99998,2139.1963)"
       x1="-997.36218"
       y1="72"
       x2="-992.36218"
       y2="72" />
    <linearGradient
       inkscape:collect="always"
       xlink:href="#linearGradient4259"
       id="linearGradient4902"
       gradientUnits="userSpaceOnUse"
       gradientTransform="matrix(0,-1.1999995,0.99999999,0,772.99999,-242.47198)"
       x1="-997.36218"
       y1="72"
       x2="-992.36218"
       y2="72" />
    <linearGradient
       inkscape:collect="always"
       xlink:href="#linearGradient4259"
       id="linearGradient4904"
       gradientUnits="userSpaceOnUse"
       gradientTransform="matrix(0,1.1999995,0.99999999,0,772.99999,2151.1963)"
       x1="-997.36218"
       y1="72"
       x2="-992.36218"
       y2="72" />
    <linearGradient
       inkscape:collect="always"
       xlink:href="#linearGradient4259"
       id="linearGradient4906"
       gradientUnits="userSpaceOnUse"
       gradientTransform="matrix(0,-1.1999995,0.99999999,0,902.99998,-236.47208)"
       x1="-997.36218"
       y1="72"
       x2="-992.36218"
       y2="72" />
    <linearGradient
       inkscape:collect="always"
       xlink:href="#linearGradient4259"
       id="linearGradient4908"
       gradientUnits="userSpaceOnUse"
       gradientTransform="matrix(0,1.1999995,0.99999999,0,902.99998,2157.1963)"
       x1="-997.36218"
       y1="72"
       x2="-992.36218"
       y2="72" />
    <linearGradient
       inkscape:collect="always"
       xlink:href="#linearGradient4259"
       id="linearGradient4910"
       gradientUnits="userSpaceOnUse"
       gradientTransform="matrix(0,-1.1999995,0.99999999,0,1033,-230.47208)"
       x1="-997.36218"
       y1="72"
       x2="-992.36218"
       y2="72" />
    <linearGradient
       inkscape:collect="always"
       xlink:href="#linearGradient4259"
       id="linearGradient4912"
       gradientUnits="userSpaceOnUse"
       gradientTransform="matrix(0,1.1999995,0.99999999,0,1033,2163.1963)"
       x1="-997.36218"
       y1="72"
       x2="-992.36218"
       y2="72" />
    <linearGradient
       inkscape:collect="always"
       xlink:href="#linearGradient4259"
       id="linearGradient4914"
       gradientUnits="userSpaceOnUse"
       gradientTransform="matrix(0,-1.1999995,0.99999999,0,1163,-224.47208)"
       x1="-997.36218"
       y1="72"
       x2="-992.36218"
       y2="72" />
    <linearGradient
       inkscape:collect="always"
       xlink:href="#linearGradient4259"
       id="linearGradient4916"
       gradientUnits="userSpaceOnUse"
       gradientTransform="matrix(0,1.1999995,0.99999999,0,1163,2169.1963)"
       x1="-997.36218"
       y1="72"
       x2="-992.36218"
       y2="72" />
    <linearGradient
       inkscape:collect="always"
       xlink:href="#linearGradient4259"
       id="linearGradient4918"
       gradientUnits="userSpaceOnUse"
       gradientTransform="matrix(0,-1.1999995,0.99999999,0,1293,-218.47208)"
       x1="-997.36218"
       y1="72"
       x2="-992.36218"
       y2="72" />
    <linearGradient
       inkscape:collect="always"
       xlink:href="#linearGradient4259"
       id="linearGradient4920"
       gradientUnits="userSpaceOnUse"
       gradientTransform="matrix(0,1.1999995,0.99999999,0,1293,2175.1963)"
       x1="-997.36218"
       y1="72"
       x2="-992.36218"
       y2="72" />
    <linearGradient
       inkscape:collect="always"
       xlink:href="#linearGradient4259"
       id="linearGradient4922"
       gradientUnits="userSpaceOnUse"
       gradientTransform="matrix(0,-1.1999995,0.99999999,0,1553,-206.47203)"
       x1="-997.36218"
       y1="72"
       x2="-992.36218"
       y2="72" />
    <linearGradient
       inkscape:collect="always"
       xlink:href="#linearGradient4259"
       id="linearGradient4924"
       gradientUnits="userSpaceOnUse"
       gradientTransform="matrix(0,1.1999995,0.99999999,0,1553,2187.1963)"
       x1="-997.36218"
       y1="72"
       x2="-992.36218"
       y2="72" />
    <linearGradient
       inkscape:collect="always"
       xlink:href="#linearGradient4259"
       id="linearGradient4926"
       gradientUnits="userSpaceOnUse"
       gradientTransform="matrix(0,-1.1999995,0.99999999,0,1683,-200.47203)"
       x1="-997.36218"
       y1="72"
       x2="-992.36218"
       y2="72" />
    <linearGradient
       inkscape:collect="always"
       xlink:href="#linearGradient4259"
       id="linearGradient4928"
       gradientUnits="userSpaceOnUse"
       gradientTransform="matrix(0,1.1999995,0.99999999,0,1683,2193.1963)"
       x1="-997.36218"
       y1="72"
       x2="-992.36218"
       y2="72" />
    <linearGradient
       inkscape:collect="always"
       xlink:href="#linearGradient4259"
       id="linearGradient4930"
       gradientUnits="userSpaceOnUse"
       gradientTransform="matrix(0,-1.1999995,0.99999999,0,1813,-194.47203)"
       x1="-997.36218"
       y1="72"
       x2="-992.36218"
       y2="72" />
    <linearGradient
       inkscape:collect="always"
       xlink:href="#linearGradient4259"
       id="linearGradient4932"
       gradientUnits="userSpaceOnUse"
       gradientTransform="matrix(0,1.1999995,0.99999999,0,1813,2199.1963)"
       x1="-997.36218"
       y1="72"
       x2="-992.36218"
       y2="72" />
    <linearGradient
       inkscape:collect="always"
       xlink:href="#linearGradient4259"
       id="linearGradient4934"
       gradientUnits="userSpaceOnUse"
       gradientTransform="matrix(0,-1.1999995,0.99999999,0,1943,-188.47203)"
       x1="-997.36218"
       y1="72"
       x2="-992.36218"
       y2="72" />
    <linearGradient
       inkscape:collect="always"
       xlink:href="#linearGradient4259"
       id="linearGradient4936"
       gradientUnits="userSpaceOnUse"
       gradientTransform="matrix(0,1.1999995,0.99999999,0,1943,2205.1963)"
       x1="-997.36218"
       y1="72"
       x2="-992.36218"
       y2="72" />
    <linearGradient
       inkscape:collect="always"
       xlink:href="#linearGradient4259"
       id="linearGradient4938"
       gradientUnits="userSpaceOnUse"
       gradientTransform="matrix(0,-1.1999995,0.99999999,0,2073,-182.47203)"
       x1="-997.36218"
       y1="72"
       x2="-992.36218"
       y2="72" />
    <linearGradient
       inkscape:collect="always"
       xlink:href="#linearGradient4259"
       id="linearGradient4940"
       gradientUnits="userSpaceOnUse"
       gradientTransform="matrix(0,1.1999995,0.99999999,0,2073,2211.1963)"
       x1="-997.36218"
       y1="72"
       x2="-992.36218"
       y2="72" />
    <linearGradient
       inkscape:collect="always"
       xlink:href="#linearGradient4259"
       id="linearGradient4942"
       gradientUnits="userSpaceOnUse"
       gradientTransform="matrix(0,-1.1999995,0.99999999,0,2333,-170.47204)"
       x1="-997.36218"
       y1="72"
       x2="-992.36218"
       y2="72" />
    <linearGradient
       inkscape:collect="always"
       xlink:href="#linearGradient4259"
       id="linearGradient4944"
       gradientUnits="userSpaceOnUse"
       gradientTransform="matrix(0,1.1999995,0.99999999,0,2333,2223.1963)"
       x1="-997.36218"
       y1="72"
       x2="-992.36218"
       y2="72" />
    <linearGradient
       inkscape:collect="always"
       xlink:href="#linearGradient4259"
       id="linearGradient4946"
       gradientUnits="userSpaceOnUse"
       gradientTransform="matrix(0,-1.1999995,0.99999999,0,2463,-164.47204)"
       x1="-997.36218"
       y1="72"
       x2="-992.36218"
       y2="72" />
    <linearGradient
       inkscape:collect="always"
       xlink:href="#linearGradient4259"
       id="linearGradient4948"
       gradientUnits="userSpaceOnUse"
       gradientTransform="matrix(0,1.1999995,0.99999999,0,2463,2229.1963)"
       x1="-997.36218"
       y1="72"
       x2="-992.36218"
       y2="72" />
    <linearGradient
       inkscape:collect="always"
       xlink:href="#linearGradient4259"
       id="linearGradient4950"
       gradientUnits="userSpaceOnUse"
       gradientTransform="matrix(0,-1.1999995,0.99999999,0,2593,-158.47204)"
       x1="-997.36218"
       y1="72"
       x2="-992.36218"
       y2="72" />
    <linearGradient
       inkscape:collect="always"
       xlink:href="#linearGradient4259"
       id="linearGradient4952"
       gradientUnits="userSpaceOnUse"
       gradientTransform="matrix(0,1.1999995,0.99999999,0,2593,2235.1963)"
       x1="-997.36218"
       y1="72"
       x2="-992.36218"
       y2="72" />
    <linearGradient
       inkscape:collect="always"
       xlink:href="#linearGradient4259"
       id="linearGradient4954"
       gradientUnits="userSpaceOnUse"
       gradientTransform="matrix(0,-1.1999995,0.99999999,0,2723,-152.47204)"
       x1="-997.36218"
       y1="72"
       x2="-992.36218"
       y2="72" />
    <linearGradient
       inkscape:collect="always"
       xlink:href="#linearGradient4259"
       id="linearGradient4956"
       gradientUnits="userSpaceOnUse"
       gradientTransform="matrix(0,1.1999995,0.99999999,0,2723,2241.1963)"
       x1="-997.36218"
       y1="72"
       x2="-992.36218"
       y2="72" />
    <linearGradient
       inkscape:collect="always"
       xlink:href="#linearGradient4259"
       id="linearGradient4958"
       gradientUnits="userSpaceOnUse"
       gradientTransform="matrix(0,-1.1999995,0.99999999,0,2853,-146.47204)"
       x1="-997.36218"
       y1="72"
       x2="-992.36218"
       y2="72" />
  </defs>
  <metadata
     id="metadata7">
    <rdf:RDF>
      <cc:Work
         rdf:about="">
        <dc:format>image/svg+xml</dc:format>
        <dc:type
           rdf:resource="http://purl.org/dc/dcmitype/StillImage" />
        <dc:title></dc:title>
      </cc:Work>
    </rdf:RDF>
  </metadata>
  <g
     style="display:inline"
     transform="translate(0,-922.36216)"
     inkscape:label="Fondo"
     id="layer2"
     inkscape:groupmode="layer" />
  <g
     style="display:inline;opacity:1"
     transform="translate(0,-922.36216)"
     id="layer1"
     inkscape:groupmode="layer"
     inkscape:label="Capa 1">
    <path
       style="opacity:1;fill:url(#linearGradient4420);fill-opacity:1;stroke:#0000ff;stroke-width:0;stroke-miterlimit:4;stroke-dasharray:none;stroke-opacity:1"
       d="m 675.42773,942.36214 a 59.999992,59.999992 0 0 0 -5.99414,6 l 91.07032,0 a 59.999992,59.999992 0 0 0 -5.89453,-6 l -79.18165,0 z"
       id="rect4412"
       inkscape:connector-curvature="0" />
    <path
       style="opacity:1;fill:url(#linearGradient4422);fill-opacity:1;stroke:#0000ff;stroke-width:0;stroke-miterlimit:4;stroke-dasharray:none;stroke-opacity:1"
       d="m 669.43359,948.36214 a 59.999992,59.999992 0 0 0 -4.49218,6 l 100.13086,0 a 59.999992,59.999992 0 0 0 -4.56836,-6 l -91.07032,0 z"
       id="rect4414"
       inkscape:connector-curvature="0" />
    <path
       style="opacity:1;fill:url(#linearGradient4898);fill-opacity:1;stroke:#0000ff;stroke-width:0;stroke-miterlimit:4;stroke-dasharray:none;stroke-opacity:1"
       d="m 553.47461,936.36214 a 59.999992,59.999992 0 0 0 -8.04688,6 l 79.18165,0 a 59.999992,59.999992 0 0 0 -8.14454,-6 l -62.99023,0 z"
       id="rect4480"
       inkscape:connector-curvature="0" />
    <path
       style="opacity:1;fill:url(#linearGradient4900);fill-opacity:1;stroke:#0000ff;stroke-width:0;stroke-miterlimit:4;stroke-dasharray:none;stroke-opacity:1"
       d="m 545.42773,942.36214 a 59.999992,59.999992 0 0 0 -5.99414,6 l 91.07032,0 a 59.999992,59.999992 0 0 0 -5.89453,-6 l -79.18165,0 z"
       id="rect4482"
       inkscape:connector-curvature="0" />
    <path
       style="opacity:1;fill:url(#linearGradient4894);fill-opacity:1;stroke:#0000ff;stroke-width:0;stroke-miterlimit:4;stroke-dasharray:none;stroke-opacity:1"
       d="m 436.50391,930.36214 a 59.999992,59.999992 0 0 0 -13.0293,6 l 62.99023,0 a 59.999992,59.999992 0 0 0 -12.85742,-6 l -37.10351,0 z"
       id="rect4536"
       inkscape:connector-curvature="0" />
    <path
       style="opacity:1;fill:url(#linearGradient4896);fill-opacity:1;stroke:#0000ff;stroke-width:0;stroke-miterlimit:4;stroke-dasharray:none;stroke-opacity:1"
       d="m 423.47461,936.36214 a 59.999992,59.999992 0 0 0 -8.04688,6 l 79.18165,0 a 59.999992,59.999992 0 0 0 -8.14454,-6 l -62.99023,0 z"
       id="rect4538"
       inkscape:connector-curvature="0" />
    <path
       style="opacity:1;fill:url(#linearGradient4890);fill-opacity:1;stroke:#0000ff;stroke-width:0;stroke-miterlimit:4;stroke-dasharray:none;stroke-opacity:1"
       d="m 325,927.36214 a 59.999992,59.999992 0 0 0 -18.49609,3 l 37.10351,0 a 59.999992,59.999992 0 0 0 -18.60742,-3 z"
       id="rect4592"
       inkscape:connector-curvature="0" />
    <path
       style="opacity:1;fill:url(#linearGradient4892);fill-opacity:1;stroke:#0000ff;stroke-width:0;stroke-miterlimit:4;stroke-dasharray:none;stroke-opacity:1"
       d="m 306.50391,930.36214 a 59.999992,59.999992 0 0 0 -13.0293,6 l 62.99023,0 a 59.999992,59.999992 0 0 0 -12.85742,-6 l -37.10351,0 z"
       id="rect4594"
       inkscape:connector-curvature="0" />
    <path
       style="opacity:1;fill:url(#linearGradient4888);fill-opacity:1;stroke:#0000ff;stroke-width:0;stroke-miterlimit:4;stroke-dasharray:none;stroke-opacity:1"
       d="m 195,927.36214 a 59.999992,59.999992 0 0 0 -18.49609,3 l 37.10351,0 a 59.999992,59.999992 0 0 0 -18.60742,-3 z"
       id="rect4650"
       inkscape:connector-curvature="0" />
    <path
       inkscape:connector-curvature="0"
       style="opacity:1;fill:url(#linearGradient4918);fill-opacity:1;stroke:#0000ff;stroke-width:0;stroke-miterlimit:4;stroke-dasharray:none;stroke-opacity:1"
       d="m 1306.9824,972.36212 a 59.999992,59.999992 0 0 0 -1.2285,6 l 118.5176,0 a 59.999992,59.999992 0 0 0 -1.2207,-6 l -116.0684,0 z"
       id="rect4342" />
    <path
       inkscape:connector-curvature="0"
       style="opacity:1;fill:url(#linearGradient4920);fill-opacity:1;stroke:#0000ff;stroke-width:0;stroke-miterlimit:4;stroke-dasharray:none;stroke-opacity:1"
       d="m 1305.7539,978.36212 a 59.999992,59.999992 0 0 0 -0.6035,6 l 119.7441,0 a 59.999992,59.999992 0 0 0 -0.623,-6 l -118.5176,0 z"
       id="rect4344" />
    <path
       inkscape:connector-curvature="0"
       style="opacity:1;fill:url(#linearGradient4914);fill-opacity:1;stroke:#0000ff;stroke-width:0;stroke-miterlimit:4;stroke-dasharray:none;stroke-opacity:1"
       d="m 1178.873,966.36212 a 59.999992,59.999992 0 0 0 -1.8906,6 l 116.0684,0 a 59.999992,59.999992 0 0 0 -1.8828,-6 l -112.295,0 z"
       id="rect4466" />
    <path
       inkscape:connector-curvature="0"
       style="opacity:1;fill:url(#linearGradient4916);fill-opacity:1;stroke:#0000ff;stroke-width:0;stroke-miterlimit:4;stroke-dasharray:none;stroke-opacity:1"
       d="m 1176.9824,972.36212 a 59.999992,59.999992 0 0 0 -1.2285,6 l 118.5176,0 a 59.999992,59.999992 0 0 0 -1.2207,-6 l -116.0684,0 z"
       id="rect4468" />
    <path
       inkscape:connector-curvature="0"
       style="opacity:1;fill:url(#linearGradient4910);fill-opacity:1;stroke:#0000ff;stroke-width:0;stroke-miterlimit:4;stroke-dasharray:none;stroke-opacity:1"
       d="m 1051.4922,960.36212 a 59.999992,59.999992 0 0 0 -2.6192,6 l 112.295,0 a 59.999992,59.999992 0 0 0 -2.5996,-6 l -107.0762,0 z"
       id="rect4522" />
    <path
       inkscape:connector-curvature="0"
       style="opacity:1;fill:url(#linearGradient4912);fill-opacity:1;stroke:#0000ff;stroke-width:0;stroke-miterlimit:4;stroke-dasharray:none;stroke-opacity:1"
       d="m 1048.873,966.36212 a 59.999992,59.999992 0 0 0 -1.8906,6 l 116.0684,0 a 59.999992,59.999992 0 0 0 -1.8828,-6 l -112.295,0 z"
       id="rect4524" />
    <path
       inkscape:connector-curvature="0"
       style="opacity:1;fill:url(#linearGradient4906);fill-opacity:1;stroke:#0000ff;stroke-width:0;stroke-miterlimit:4;stroke-dasharray:none;stroke-opacity:1"
       d="m 924.9414,954.36212 a 59.999992,59.999992 0 0 0 -3.44922,6 l 107.07622,0 a 59.999992,59.999992 0 0 0 -3.4961,-6 l -100.1309,0 z"
       id="rect4578" />
    <path
       inkscape:connector-curvature="0"
       style="opacity:1;fill:url(#linearGradient4908);fill-opacity:1;stroke:#0000ff;stroke-width:0;stroke-miterlimit:4;stroke-dasharray:none;stroke-opacity:1"
       d="m 921.49218,960.36212 a 59.999992,59.999992 0 0 0 -2.61914,6 l 112.29496,0 a 59.999992,59.999992 0 0 0 -2.5996,-6 l -107.07622,0 z"
       id="rect4580" />
    <path
       inkscape:connector-curvature="0"
       style="opacity:1;fill:url(#linearGradient4902);fill-opacity:1;stroke:#0000ff;stroke-width:0;stroke-miterlimit:4;stroke-dasharray:none;stroke-opacity:1"
       d="m 799.43358,948.36212 a 59.999992,59.999992 0 0 0 -4.49218,6 l 100.13086,0 a 59.999992,59.999992 0 0 0 -4.56836,-6 l -91.07032,0 z"
       id="rect4634" />
    <path
       inkscape:connector-curvature="0"
       style="opacity:1;fill:url(#linearGradient4904);fill-opacity:1;stroke:#0000ff;stroke-width:0;stroke-miterlimit:4;stroke-dasharray:none;stroke-opacity:1"
       d="m 794.9414,954.36212 a 59.999992,59.999992 0 0 0 -3.44922,6 l 107.07617,0 a 59.999992,59.999992 0 0 0 -3.49609,-6 l -100.13086,0 z"
       id="rect4636" />
    <path
       inkscape:connector-curvature="0"
       style="opacity:1;fill:url(#linearGradient4424);fill-opacity:1;stroke:#0000ff;stroke-width:0;stroke-miterlimit:4;stroke-dasharray:none;stroke-opacity:1"
       d="m 1435.7539,978.36212 a 59.999992,59.999992 0 0 0 -0.6035,6 l 119.7441,0 a 59.999992,59.999992 0 0 0 -0.623,-6 l -118.5176,0 z"
       id="rect4690" />
    <path
       inkscape:connector-curvature="0"
       style="opacity:1;fill:url(#linearGradient4426);fill-opacity:1;stroke:#0000ff;stroke-width:0;stroke-miterlimit:4;stroke-dasharray:none;stroke-opacity:1"
       d="m 1435.1504,984.36212 a 59.999992,59.999992 0 0 0 -0.1504,3 59.999992,59.999992 0 0 0 0.1055,3 l 119.7441,0 a 59.999992,59.999992 0 0 0 0.1504,-3 59.999992,59.999992 0 0 0 -0.1055,-3 l -119.7441,0 z"
       id="rect4692" />
    <path
       inkscape:connector-curvature="0"
       style="opacity:1;fill:url(#linearGradient4428);fill-opacity:1;stroke:#0000ff;stroke-width:0;stroke-miterlimit:4;stroke-dasharray:none;stroke-opacity:1"
       d="m 2221.4316,1014.3621 a 59.999992,59.999992 0 0 0 3.4961,6 l 100.1309,0 a 59.999992,59.999992 0 0 0 3.4492,-6 l -107.0762,0 z"
       id="rect4328" />
    <path
       inkscape:connector-curvature="0"
       style="opacity:1;fill:url(#linearGradient4430);fill-opacity:1;stroke:#0000ff;stroke-width:0;stroke-miterlimit:4;stroke-dasharray:none;stroke-opacity:1"
       d="m 2224.9277,1020.3621 a 59.999992,59.999992 0 0 0 4.5684,6 l 91.0703,0 a 59.999992,59.999992 0 0 0 4.4922,-6 l -100.1309,0 z"
       id="rect4330" />
    <path
       inkscape:connector-curvature="0"
       style="opacity:1;fill:url(#linearGradient4938);fill-opacity:1;stroke:#0000ff;stroke-width:0;stroke-miterlimit:4;stroke-dasharray:none;stroke-opacity:1"
       d="m 2088.832,1008.3621 a 59.999992,59.999992 0 0 0 2.5996,6 l 107.0762,0 a 59.999992,59.999992 0 0 0 2.6191,-6 l -112.2949,0 z"
       id="rect4452" />
    <path
       inkscape:connector-curvature="0"
       style="opacity:1;fill:url(#linearGradient4940);fill-opacity:1;stroke:#0000ff;stroke-width:0;stroke-miterlimit:4;stroke-dasharray:none;stroke-opacity:1"
       d="m 2091.4316,1014.3621 a 59.999992,59.999992 0 0 0 3.4961,6 l 100.1309,0 a 59.999992,59.999992 0 0 0 3.4492,-6 l -107.0762,0 z"
       id="rect4454" />
    <path
       inkscape:connector-curvature="0"
       style="opacity:1;fill:url(#linearGradient4934);fill-opacity:1;stroke:#0000ff;stroke-width:0;stroke-miterlimit:4;stroke-dasharray:none;stroke-opacity:1"
       d="m 1956.9492,1002.3621 a 59.999992,59.999992 0 0 0 1.8828,6 l 112.2949,0 a 59.999992,59.999992 0 0 0 1.8907,-6 l -116.0684,0 z"
       id="rect4508" />
    <path
       inkscape:connector-curvature="0"
       style="opacity:1;fill:url(#linearGradient4936);fill-opacity:1;stroke:#0000ff;stroke-width:0;stroke-miterlimit:4;stroke-dasharray:none;stroke-opacity:1"
       d="m 1958.832,1008.3621 a 59.999992,59.999992 0 0 0 2.5996,6 l 107.0762,0 a 59.999992,59.999992 0 0 0 2.6191,-6 l -112.2949,0 z"
       id="rect4510" />
    <path
       inkscape:connector-curvature="0"
       style="opacity:1;fill:url(#linearGradient4930);fill-opacity:1;stroke:#0000ff;stroke-width:0;stroke-miterlimit:4;stroke-dasharray:none;stroke-opacity:1"
       d="m 1825.7285,996.36212 a 59.999992,59.999992 0 0 0 1.2207,5.99998 l 116.0684,0 a 59.999992,59.999992 0 0 0 1.2285,-5.99998 l -118.5176,0 z"
       id="rect4564" />
    <path
       inkscape:connector-curvature="0"
       style="opacity:1;fill:url(#linearGradient4932);fill-opacity:1;stroke:#0000ff;stroke-width:0;stroke-miterlimit:4;stroke-dasharray:none;stroke-opacity:1"
       d="m 1826.9492,1002.3621 a 59.999992,59.999992 0 0 0 1.8828,6 l 112.295,0 a 59.999992,59.999992 0 0 0 1.8906,-6 l -116.0684,0 z"
       id="rect4566" />
    <path
       inkscape:connector-curvature="0"
       style="opacity:1;fill:url(#linearGradient4926);fill-opacity:1;stroke:#0000ff;stroke-width:0;stroke-miterlimit:4;stroke-dasharray:none;stroke-opacity:1"
       d="m 1695.1055,990.36212 a 59.999992,59.999992 0 0 0 0.623,6 l 118.5176,0 a 59.999992,59.999992 0 0 0 0.6035,-6 l -119.7441,0 z"
       id="rect4620" />
    <path
       inkscape:connector-curvature="0"
       style="opacity:1;fill:url(#linearGradient4928);fill-opacity:1;stroke:#0000ff;stroke-width:0;stroke-miterlimit:4;stroke-dasharray:none;stroke-opacity:1"
       d="m 1695.7285,996.36212 a 59.999992,59.999992 0 0 0 1.2207,5.99998 l 116.0684,0 a 59.999992,59.999992 0 0 0 1.2285,-5.99998 l -118.5176,0 z"
       id="rect4622" />
    <path
       inkscape:connector-curvature="0"
       style="opacity:1;fill:url(#linearGradient4922);fill-opacity:1;stroke:#0000ff;stroke-width:0;stroke-miterlimit:4;stroke-dasharray:none;stroke-opacity:1"
       d="m 1565.1504,984.36212 a 59.999992,59.999992 0 0 0 -0.1504,3 59.999992,59.999992 0 0 0 0.1055,3 l 119.7441,0 a 59.999992,59.999992 0 0 0 0.1504,-3 59.999992,59.999992 0 0 0 -0.1055,-3 l -119.7441,0 z"
       id="rect4676" />
    <path
       inkscape:connector-curvature="0"
       style="opacity:1;fill:url(#linearGradient4924);fill-opacity:1;stroke:#0000ff;stroke-width:0;stroke-miterlimit:4;stroke-dasharray:none;stroke-opacity:1"
       d="m 1565.1055,990.36212 a 59.999992,59.999992 0 0 0 0.623,6 l 118.5176,0 a 59.999992,59.999992 0 0 0 0.6035,-6 l -119.7441,0 z"
       id="rect4678" />
    <path
       inkscape:connector-curvature="0"
       style="opacity:1;fill:url(#linearGradient4958);fill-opacity:1;stroke:#0000ff;stroke-width:0;stroke-miterlimit:4;stroke-dasharray:none;stroke-opacity:1"
       d="m 2906.3926,1044.3621 a 59.999992,59.999992 0 0 0 18.6074,3 59.999992,59.999992 0 0 0 18.5,-3 l -37.1074,0 z"
       id="rect4438" />
    <path
       inkscape:connector-curvature="0"
       style="opacity:1;fill:url(#linearGradient4954);fill-opacity:1;stroke:#0000ff;stroke-width:0;stroke-miterlimit:4;stroke-dasharray:none;stroke-opacity:1"
       d="m 2763.5352,1038.3621 a 59.999992,59.999992 0 0 0 12.8574,6 l 37.1074,0 a 59.999992,59.999992 0 0 0 13.0254,-6 l -62.9902,0 z"
       id="rect4494" />
    <path
       inkscape:connector-curvature="0"
       style="opacity:1;fill:url(#linearGradient4956);fill-opacity:1;stroke:#0000ff;stroke-width:0;stroke-miterlimit:4;stroke-dasharray:none;stroke-opacity:1"
       d="m 2776.3926,1044.3621 a 59.999992,59.999992 0 0 0 18.6074,3 59.999992,59.999992 0 0 0 18.5,-3 l -37.1074,0 z"
       id="rect4496" />
    <path
       inkscape:connector-curvature="0"
       style="opacity:1;fill:url(#linearGradient4950);fill-opacity:1;stroke:#0000ff;stroke-width:0;stroke-miterlimit:4;stroke-dasharray:none;stroke-opacity:1"
       d="m 2625.3906,1032.3621 a 59.999992,59.999992 0 0 0 8.1446,6 l 62.9902,0 a 59.999992,59.999992 0 0 0 8.0469,-6 l -79.1817,0 z"
       id="rect4550" />
    <path
       inkscape:connector-curvature="0"
       style="opacity:1;fill:url(#linearGradient4952);fill-opacity:1;stroke:#0000ff;stroke-width:0;stroke-miterlimit:4;stroke-dasharray:none;stroke-opacity:1"
       d="m 2633.5352,1038.3621 a 59.999992,59.999992 0 0 0 12.8574,6 l 37.1074,0 a 59.999992,59.999992 0 0 0 13.0254,-6 l -62.9902,0 z"
       id="rect4552" />
    <path
       inkscape:connector-curvature="0"
       style="opacity:1;fill:url(#linearGradient4946);fill-opacity:1;stroke:#0000ff;stroke-width:0;stroke-miterlimit:4;stroke-dasharray:none;stroke-opacity:1"
       d="m 2489.4961,1026.3621 a 59.999992,59.999992 0 0 0 5.8945,6 l 79.1817,0 a 59.999992,59.999992 0 0 0 5.9941,-6 l -91.0703,0 z"
       id="rect4606" />
    <path
       inkscape:connector-curvature="0"
       style="opacity:1;fill:url(#linearGradient4948);fill-opacity:1;stroke:#0000ff;stroke-width:0;stroke-miterlimit:4;stroke-dasharray:none;stroke-opacity:1"
       d="m 2495.3906,1032.3621 a 59.999992,59.999992 0 0 0 8.1446,6 l 62.9902,0 a 59.999992,59.999992 0 0 0 8.0469,-6 l -79.1817,0 z"
       id="rect4608" />
    <path
       inkscape:connector-curvature="0"
       style="opacity:1;fill:url(#linearGradient4942);fill-opacity:1;stroke:#0000ff;stroke-width:0;stroke-miterlimit:4;stroke-dasharray:none;stroke-opacity:1"
       d="m 2354.9277,1020.3621 a 59.999992,59.999992 0 0 0 4.5684,6 l 91.0703,0 a 59.999992,59.999992 0 0 0 4.4922,-6 l -100.1309,0 z"
       id="rect4662" />
    <path
       inkscape:connector-curvature="0"
       style="opacity:1;fill:url(#linearGradient4944);fill-opacity:1;stroke:#0000ff;stroke-width:0;stroke-miterlimit:4;stroke-dasharray:none;stroke-opacity:1"
       d="m 2359.4961,1026.3621 a 59.999992,59.999992 0 0 0 5.8945,6 l 79.1817,0 a 59.999992,59.999992 0 0 0 5.9941,-6 l -91.0703,0 z"
       id="rect4664" />
  </g>
</svg>
