<?xml version="1.0" encoding="UTF-8" standalone="no"?>
<!-- Created with Inkscape (http://www.inkscape.org/) -->

<svg
   xmlns:dc="http://purl.org/dc/elements/1.1/"
   xmlns:cc="http://creativecommons.org/ns#"
   xmlns:rdf="http://www.w3.org/1999/02/22-rdf-syntax-ns#"
   xmlns:svg="http://www.w3.org/2000/svg"
   xmlns="http://www.w3.org/2000/svg"
   xmlns:sodipodi="http://sodipodi.sourceforge.net/DTD/sodipodi-0.dtd"
   xmlns:inkscape="http://www.inkscape.org/namespaces/inkscape"
   width="1080"
   height="90"
   viewBox="0 0 1080 90"
   id="svg2"
   version="1.1"
   inkscape:version="0.91 r13725"
   sodipodi:docname="escudo_normal_svg.svg">
  <defs
     id="defs4" />
  <sodipodi:namedview
     id="base"
     pagecolor="#888888"
     bordercolor="#666666"
     borderopacity="1.0"
     inkscape:pageopacity="0"
     inkscape:pageshadow="2"
     inkscape:zoom="3"
     inkscape:cx="932.00896"
     inkscape:cy="41.407834"
     inkscape:document-units="px"
     inkscape:current-layer="layer1"
     showgrid="false"
     units="px"
     inkscape:window-width="1450"
     inkscape:window-height="838"
     inkscape:window-x="-8"
     inkscape:window-y="-8"
     inkscape:window-maximized="1" />
  <metadata
     id="metadata7">
    <rdf:RDF>
      <cc:Work
         rdf:about="">
        <dc:format>image/svg+xml</dc:format>
        <dc:type
           rdf:resource="http://purl.org/dc/dcmitype/StillImage" />
        <dc:title></dc:title>
      </cc:Work>
    </rdf:RDF>
  </metadata>
  <g
     inkscape:groupmode="layer"
     id="layer2"
     inkscape:label="Fondo"
     transform="translate(0,-962.36216)"
     style="display:inline" />
  <g
     inkscape:label="Capa 1"
     inkscape:groupmode="layer"
     id="layer1"
     transform="translate(0,-962.36216)"
     style="display:inline;opacity:0.5">
    <path
       style="display:inline;opacity:0.5;fill:#ffffff;fill-opacity:1;stroke:none;stroke-width:1.25812817;stroke-miterlimit:4;stroke-dasharray:none;stroke-opacity:1"
       d="M 44,966.36197 A 41.108379,43.277511 0 0 0 3.0136719,1007.12 a 2.5,2.5 0 0 0 -0.00977,0.1758 41.108379,43.277511 0 0 0 -0.0039,0.066 l 0.00195,0 a 2.5,2.5 0 0 0 0.3320344,1.25 2.5,2.5 0 0 0 1.9101566,1.2343 41.110333,43.276409 0 0 0 40.7578121,38.5157 41.110333,43.276409 0 0 0 40.988281,-40.7579 2.5001188,2.4999363 0 0 0 0.0098,-0.1757 41.110333,43.276409 0 0 0 0,-0.064 2.5001188,2.4999363 0 0 0 -0.332031,-1.25 2.5001188,2.4999363 0 0 0 -1.91211,-1.2363 A 41.108379,43.277511 0 0 0 44,966.36197 Z m 2.25,2.5 a 38.35111,40.638608 0 0 1 38.007812,36.01583 2.5001188,2.4999363 0 0 0 -1.005859,0.3203 2.5001188,2.4999363 0 0 0 -1.248047,2.166 38.352933,40.637573 0 0 1 -38.251953,38.4981 38.352933,40.637573 0 0 1 -38.009765,-36.0137 2.5,2.5 0 0 0 1.007812,-0.3203 2.5,2.5 0 0 0 1.248047,-2.166 l 0.00195,0 a 38.35111,40.638608 0 0 1 38.25,-38.50023 z"
       id="path5577-6-3-3-4"
       inkscape:connector-curvature="0" />
    <path
       style="display:inline;opacity:0.5;fill:#ffffff;fill-opacity:1;stroke:none;stroke-width:1.25812817;stroke-miterlimit:4;stroke-dasharray:none;stroke-opacity:1"
       d="m 1025.3544,1047.2235 a 41.108379,43.277511 15 0 0 50.1387,-28.7612 2.5,2.5 0 0 0 0.055,-0.1672 41.108379,43.277511 15 0 0 0.021,-0.063 l -0,-5e-4 a 2.5,2.5 0 0 0 0,-1.2934 2.5,2.5 0 0 0 -1.5256,-1.6866 41.110333,43.276409 15 0 0 -29.4004,-47.75222 41.110333,43.276409 15 0 0 -50.14057,28.76056 2.5001188,2.4999363 15 0 0 -0.0551,0.16712 41.110333,43.276409 15 0 0 -0.0166,0.0618 2.5001188,2.4999363 15 0 0 -0.003,1.29334 2.5001188,2.4999363 15 0 0 1.52706,1.68909 41.108379,43.277511 15 0 0 29.39844,47.75189 z m -1.5263,-2.9971 a 38.35111,40.638608 15 0 1 -27.39113,-44.62581 2.5001188,2.4999363 15 0 0 1.05443,-0.0491 2.5001188,2.4999363 15 0 0 1.76617,-1.76917 38.352933,40.637573 15 0 1 46.91253,-27.28598 38.352933,40.637573 15 0 1 27.3936,44.62422 2.5,2.5 0 0 0 -1.0564,0.048 2.5,2.5 0 0 0 -1.7661,1.7692 l -0,-5e-4 a 38.35111,40.638608 15 0 1 -46.9113,27.2886 z"
       id="path5577-6-3-3-4-4"
       inkscape:connector-curvature="0" />
    <path
       style="display:inline;opacity:0.5;fill:#ffffff;fill-opacity:1;stroke:none;stroke-width:1.25812817;stroke-miterlimit:4;stroke-dasharray:none;stroke-opacity:1"
       d="m 925.36605,1043.3688 a 41.108379,43.277511 30 0 0 55.87423,-14.8044 2.5,2.5 0 0 0 0.0966,-0.1472 41.108379,43.277511 30 0 0 0.0365,-0.055 l -0.002,-10e-4 a 2.5,2.5 0 0 0 0.33746,-1.2485 2.5,2.5 0 0 0 -1.0371,-2.0241 41.110333,43.276409 30 0 0 -16.03945,-53.73444 41.110333,43.276409 30 0 0 -55.87584,14.80324 2.5001188,2.4999363 30 0 0 -0.0965,0.14716 41.110333,43.276409 30 0 0 -0.032,0.0554 2.5001188,2.4999363 30 0 0 -0.33746,1.24855 2.5001188,2.4999363 30 0 0 1.03779,2.02672 41.108379,43.277511 30 0 0 16.03766,53.73375 z m -0.69856,-3.2901 a 38.35111,40.638608 30 0 1 -14.9078,-50.19456 2.5001188,2.4999363 30 0 0 1.03125,0.22554 2.5001188,2.4999363 30 0 0 2.16384,-1.25178 38.352933,40.637573 30 0 1 52.37621,-14.21436 38.352933,40.637573 30 0 1 14.91058,50.19366 2.5,2.5 0 0 0 -1.03295,-0.2265 2.5,2.5 0 0 0 -2.16383,1.2518 l -0.002,-10e-4 a 38.35111,40.638608 30 0 1 -52.37561,14.2172 z"
       id="path5577-6-3-3-4-3"
       inkscape:connector-curvature="0" />
    <path
       style="display:inline;opacity:0.5;fill:#ffffff;fill-opacity:1;stroke:none;stroke-width:1.25812817;stroke-miterlimit:4;stroke-dasharray:none;stroke-opacity:1"
       d="m 826.71579,1037.0602 a 41.108379,43.277511 45 0 0 57.80202,0.1614 2.5,2.5 0 0 0 0.13138,-0.1173 41.108379,43.277511 45 0 0 0.0495,-0.044 l -0.001,-0 a 2.5,2.5 0 0 0 0.6491,-1.1187 2.5,2.5 0 0 0 -0.4779,-2.2234 41.110333,43.276409 45 0 0 -1.58541,-56.05488 41.110333,43.276409 45 0 0 -57.80328,-0.1629 2.5001188,2.4999363 45 0 0 -0.13131,0.11717 41.110333,43.276409 45 0 0 -0.0453,0.0453 2.5001188,2.4999363 45 0 0 -0.6491,1.11867 2.5001188,2.4999363 45 0 0 0.47787,2.22626 41.108379,43.277511 45 0 0 1.58387,56.05363 z m 0.17678,-3.3588 a 38.35111,40.638608 45 0 1 -1.40852,-52.34262 2.5001188,2.4999363 45 0 0 0.93774,0.48476 2.5001188,2.4999363 45 0 0 2.41409,-0.64909 38.352933,40.637573 45 0 1 54.27048,-0.17405 38.352933,40.637573 45 0 1 1.41144,52.3425 2.5,2.5 0 0 0 -0.93912,-0.4862 2.5,2.5 0 0 0 -2.41409,0.6491 l -0.001,-0 a 38.35111,40.638608 45 0 1 -54.27063,0.177 z"
       id="path5577-6-3-3-4-9"
       inkscape:connector-curvature="0" />
    <path
       style="display:inline;opacity:0.5;fill:#ffffff;fill-opacity:1;stroke:none;stroke-width:1.25812817;stroke-miterlimit:4;stroke-dasharray:none;stroke-opacity:1"
       d="m 729.99307,1028.7277 a 41.108379,43.277511 60 0 0 55.79068,15.1162 2.5,2.5 0 0 0 0.15725,-0.079 41.108379,43.277511 60 0 0 0.0592,-0.029 l -0.001,-0 a 2.5,2.5 0 0 0 0.91651,-0.9126 2.5,2.5 0 0 0 0.11386,-2.2714 41.110333,43.276409 60 0 0 12.97667,-54.55513 41.110333,43.276409 60 0 0 -55.79152,-15.11794 2.5001188,2.4999363 60 0 0 -0.15716,0.0792 41.110333,43.276409 60 0 0 -0.0554,0.032 2.5001188,2.4999363 60 0 0 -0.91652,0.91255 2.5001188,2.4999363 60 0 0 -0.11461,2.27408 41.108379,43.277511 60 0 0 -12.97786,54.55365 z m 1.04007,-3.1986 a 38.35111,40.638608 60 0 1 12.18674,-50.92362 2.5001188,2.4999363 60 0 0 0.78032,0.71095 2.5001188,2.4999363 60 0 0 2.49983,-0.002 38.352933,40.637573 60 0 1 52.46631,13.87811 38.352933,40.637573 60 0 1 -12.18389,50.92431 2.5,2.5 0 0 0 -0.7813,-0.7127 2.5,2.5 0 0 0 -2.49983,0 l -10e-4,-0 a 38.35111,40.638608 60 0 1 -52.4672,-13.8754 z"
       id="path5577-6-3-3-4-5"
       inkscape:connector-curvature="0" />
    <path
       style="display:inline;opacity:0.5;fill:#ffffff;fill-opacity:1;stroke:none;stroke-width:1.25812817;stroke-miterlimit:4;stroke-dasharray:none;stroke-opacity:1"
       d="m 635.65603,1018.9392 a 41.108379,43.277511 75 0 0 49.9773,29.0408 2.5,2.5 0 0 0 0.1724,-0.036 41.108379,43.277511 75 0 0 0.0648,-0.013 l -5.2e-4,-0 a 2.5,2.5 0 0 0 1.12147,-0.6443 2.5,2.5 0 0 0 0.69786,-2.1645 41.110333,43.276409 75 0 0 26.65441,-49.33761 41.110333,43.276409 75 0 0 -49.97766,-29.04272 2.5001188,2.4999363 75 0 0 -0.1723,0.0358 41.110333,43.276409 75 0 0 -0.0618,0.0166 2.5001188,2.4999363 75 0 0 -1.12147,0.64424 2.5001188,2.4999363 75 0 0 -0.69928,2.16694 41.108379,43.277511 75 0 0 -26.65516,49.33587 z m 1.83247,-2.8204 a 38.35111,40.638608 75 0 1 24.9515,-46.03432 2.5001188,2.4999363 75 0 0 0.56972,0.88869 2.5001188,2.4999363 75 0 0 2.41522,0.64492 38.352933,40.637573 75 0 1 47.08664,26.98451 38.352933,40.637573 75 0 1 -24.94891,46.0356 2.5,2.5 0 0 0 -0.57023,-0.8905 2.5,2.5 0 0 0 -2.41521,-0.6449 l -5.2e-4,-0 a 38.35111,40.638608 75 0 1 -47.08822,-26.982 z"
       id="path5577-6-3-3-4-7"
       inkscape:connector-curvature="0" />
    <path
       style="display:inline;opacity:0.5;fill:#ffffff;fill-opacity:1;stroke:none;stroke-width:1.25812817;stroke-miterlimit:4;stroke-dasharray:none;stroke-opacity:1"
       d="m 544.00022,1008.3617 a 43.277511,41.108379 0 0 0 40.75806,40.9863 2.5,2.5 0 0 0 0.1758,0.01 43.277511,41.108379 0 0 0 0.066,0 l 0,-0 a 2.5,2.5 0 0 0 1.25,-0.332 2.5,2.5 0 0 0 1.2343,-1.9102 43.276409,41.110333 0 0 0 38.5157,-40.7578 43.276409,41.110333 0 0 0 -40.7579,-40.98826 2.4999363,2.5001188 0 0 0 -0.1757,-0.01 43.276409,41.110333 0 0 0 -0.064,0 2.4999363,2.5001188 0 0 0 -1.25,0.33203 2.4999363,2.5001188 0 0 0 -1.2363,1.91211 43.277511,41.108379 0 0 0 -38.51596,40.75592 z m 2.5,-2.25 a 40.638608,38.35111 0 0 1 36.01586,-38.00782 2.4999363,2.5001188 0 0 0 0.3203,1.00586 2.4999363,2.5001188 0 0 0 2.166,1.24805 40.637573,38.352933 0 0 1 38.4981,38.25191 40.637573,38.352933 0 0 1 -36.0137,38.0098 2.5,2.5 0 0 0 -0.3203,-1.0078 2.5,2.5 0 0 0 -2.166,-1.2481 l 0,-0 a 40.638608,38.35111 0 0 1 -38.50026,-38.25 z"
       id="path5577-6-3-3-4-2"
       inkscape:connector-curvature="0" />
    <path
       style="display:inline;opacity:0.5;fill:#ffffff;fill-opacity:1;stroke:none;stroke-width:1.25812817;stroke-miterlimit:4;stroke-dasharray:none;stroke-opacity:1"
       d="m 455.13848,997.71605 a 43.277511,41.108379 15 0 0 28.76122,50.13875 2.5,2.5 0 0 0 0.16722,0.055 43.277511,41.108379 15 0 0 0.0627,0.021 l 5.2e-4,-0 a 2.5,2.5 0 0 0 1.29334,0 2.5,2.5 0 0 0 1.68663,-1.5257 43.276409,41.110333 15 0 0 47.75221,-29.4004 43.276409,41.110333 15 0 0 -28.76056,-50.14054 2.4999363,2.5001188 15 0 0 -0.16713,-0.0551 43.276409,41.110333 15 0 0 -0.0618,-0.0166 2.4999363,2.5001188 15 0 0 -1.29334,-0.003 2.4999363,2.5001188 15 0 0 -1.68907,1.52698 43.277511,41.108379 15 0 0 -47.75196,29.3985 z m 2.99716,-1.52628 a 40.638608,38.35111 15 0 1 44.62579,-27.39114 2.4999363,2.5001188 15 0 0 0.0491,1.05449 2.4999363,2.5001188 15 0 0 1.76917,1.76613 40.637573,38.352933 15 0 1 27.28598,46.91255 40.637573,38.352933 15 0 1 -44.62422,27.3936 2.5,2.5 0 0 0 -0.0485,-1.0564 2.5,2.5 0 0 0 -1.76918,-1.7661 l 5.2e-4,-0 a 40.638608,38.35111 15 0 1 -27.28857,-46.91127 z"
       id="path5577-6-3-3-4-6"
       inkscape:connector-curvature="0" />
    <path
       style="display:inline;opacity:0.5;fill:#ffffff;fill-opacity:1;stroke:none;stroke-width:1.25812817;stroke-miterlimit:4;stroke-dasharray:none;stroke-opacity:1"
       d="m 368.99326,987.72777 a 43.277511,41.108379 30 0 0 14.80435,55.87423 2.5,2.5 0 0 0 0.14724,0.097 43.277511,41.108379 30 0 0 0.0552,0.036 l 0.001,-0 a 2.5,2.5 0 0 0 1.24855,0.3374 2.5,2.5 0 0 0 2.02401,-1.037 43.276409,41.110333 30 0 0 53.73448,-16.0395 43.276409,41.110333 30 0 0 -14.80323,-55.87584 2.4999363,2.5001188 30 0 0 -0.14716,-0.0965 43.276409,41.110333 30 0 0 -0.0554,-0.032 2.4999363,2.5001188 30 0 0 -1.24855,-0.33745 2.4999363,2.5001188 30 0 0 -2.02672,1.03778 43.277511,41.108379 30 0 0 -53.73374,16.03766 z m 3.29006,-0.69856 a 40.638608,38.35111 30 0 1 50.19456,-14.9078 2.4999363,2.5001188 30 0 0 -0.22555,1.03125 2.4999363,2.5001188 30 0 0 1.25179,2.16385 40.637573,38.352933 30 0 1 14.21436,52.37619 40.637573,38.352933 30 0 1 -50.19367,14.9106 2.5,2.5 0 0 0 0.22652,-1.033 2.5,2.5 0 0 0 -1.25179,-2.1638 l 10e-4,-0 a 40.638608,38.35111 30 0 1 -14.2172,-52.37562 z"
       id="path5577-6-3-3-4-64"
       inkscape:connector-curvature="0" />
    <path
       style="display:inline;opacity:0.5;fill:#ffffff;fill-opacity:1;stroke:none;stroke-width:1.25812817;stroke-miterlimit:4;stroke-dasharray:none;stroke-opacity:1"
       d="m 285.30184,979.07752 a 43.277511,41.108379 45 0 0 -0.16141,57.80198 2.5,2.5 0 0 0 0.11724,0.1314 43.277511,41.108379 45 0 0 0.0438,0.05 l 0.001,-0 a 2.5,2.5 0 0 0 1.11867,0.6491 2.5,2.5 0 0 0 2.22347,-0.4779 43.276409,41.110333 45 0 0 56.05483,-1.5854 43.276409,41.110333 45 0 0 0.16291,-57.8033 2.4999363,2.5001188 45 0 0 -0.11717,-0.13131 43.276409,41.110333 45 0 0 -0.0453,-0.0453 2.4999363,2.5001188 45 0 0 -1.11866,-0.64911 2.4999363,2.5001188 45 0 0 -2.22626,0.47787 43.277511,41.108379 45 0 0 -56.05367,1.58387 z m 3.35876,0.17677 a 40.638608,38.35111 45 0 1 52.34264,-1.40852 2.4999363,2.5001188 45 0 0 -0.48477,0.93774 2.4999363,2.5001188 45 0 0 0.64909,2.4141 40.637573,38.352933 45 0 1 0.17406,54.27049 40.637573,38.352933 45 0 1 -52.3425,1.4114 2.5,2.5 0 0 0 0.48615,-0.9391 2.5,2.5 0 0 0 -0.6491,-2.4141 l 0.001,-0 a 40.638608,38.35111 45 0 1 -0.17696,-54.27063 z"
       id="path5577-6-3-3-4-47"
       inkscape:connector-curvature="0" />
    <path
       style="display:inline;opacity:0.5;fill:#ffffff;fill-opacity:1;stroke:none;stroke-width:1.25812817;stroke-miterlimit:4;stroke-dasharray:none;stroke-opacity:1"
       d="m 203.63431,972.3548 a 43.277511,41.108379 60 0 0 -15.11617,55.7907 2.5,2.5 0 0 0 0.0792,0.1572 43.277511,41.108379 60 0 0 0.0295,0.059 l 0.002,-0 a 2.5,2.5 0 0 0 0.91255,0.9165 2.5,2.5 0 0 0 2.27139,0.1139 43.276409,41.110333 60 0 0 54.55515,12.9766 43.276409,41.110333 60 0 0 15.11794,-55.79149 2.4999363,2.5001188 60 0 0 -0.0792,-0.15716 43.276409,41.110333 60 0 0 -0.032,-0.0554 2.4999363,2.5001188 60 0 0 -0.91254,-0.91652 2.4999363,2.5001188 60 0 0 -2.27409,-0.11461 43.277511,41.108379 60 0 0 -54.55361,-12.97785 z m 3.19856,1.04006 a 40.638608,38.35111 60 0 1 50.92366,12.18675 2.4999363,2.5001188 60 0 0 -0.71095,0.78031 2.4999363,2.5001188 60 0 0 0.002,2.49984 40.637573,38.352933 60 0 1 -13.87811,52.46634 40.637573,38.352933 60 0 1 -50.92428,-12.1839 2.5,2.5 0 0 0 0.71265,-0.7813 2.5,2.5 0 0 0 -0.002,-2.4999 l 0.002,-10e-4 a 40.638608,38.35111 60 0 1 13.87535,-52.46716 z"
       id="path5577-6-3-3-4-37"
       inkscape:connector-curvature="0" />
    <path
       style="display:inline;opacity:0.5;fill:#ffffff;fill-opacity:1;stroke:none;stroke-width:1.25812817;stroke-miterlimit:4;stroke-dasharray:none;stroke-opacity:1"
       d="m 123.42313,968.01775 a 43.277511,41.108379 75 0 0 -29.040794,49.97735 2.5,2.5 0 0 0 0.03584,0.1724 43.277511,41.108379 75 0 0 0.01322,0.065 l 0.0019,-5e-4 a 2.5,2.5 0 0 0 0.64424,1.1215 2.5,2.5 0 0 0 2.164533,0.6978 43.276409,41.110333 75 0 0 49.33762,26.6545 43.276409,41.110333 75 0 0 29.04271,-49.97769 2.4999363,2.5001188 75 0 0 -0.0358,-0.1723 43.276409,41.110333 75 0 0 -0.0166,-0.0618 2.4999363,2.5001188 75 0 0 -0.64424,-1.12148 2.4999363,2.5001188 75 0 0 -2.16693,-0.69928 43.277511,41.108379 75 0 0 -49.33583,-26.65516 z m 2.82038,1.83247 a 40.638608,38.35111 75 0 1 46.03431,24.95151 2.4999363,2.5001188 75 0 0 -0.88868,0.56972 2.4999363,2.5001188 75 0 0 -0.64493,2.41521 40.637573,38.352933 75 0 1 -26.9845,47.08664 40.637573,38.352933 75 0 1 -46.035648,-24.9489 2.5,2.5 0 0 0 0.890579,-0.5702 2.5,2.5 0 0 0 0.644912,-2.4152 l 0.0019,-6e-4 a 40.638608,38.35111 75 0 1 26.982055,-47.08819 z"
       id="path5577-6-3-3-4-95"
       inkscape:connector-curvature="0" />
  </g>
</svg>
