<?xml version="1.0" encoding="UTF-8" standalone="no"?>
<!-- Created with Inkscape (http://www.inkscape.org/) -->

<svg
   xmlns:dc="http://purl.org/dc/elements/1.1/"
   xmlns:cc="http://creativecommons.org/ns#"
   xmlns:rdf="http://www.w3.org/1999/02/22-rdf-syntax-ns#"
   xmlns:svg="http://www.w3.org/2000/svg"
   xmlns="http://www.w3.org/2000/svg"
   xmlns:sodipodi="http://sodipodi.sourceforge.net/DTD/sodipodi-0.dtd"
   xmlns:inkscape="http://www.inkscape.org/namespaces/inkscape"
   width="90"
   height="90"
   viewBox="0 0 90 90"
   id="svg2"
   version="1.1"
   inkscape:version="0.91 r13725"
   sodipodi:docname="escudo_normal_svg.svg">
  <defs
     id="defs4" />
  <sodipodi:namedview
     id="base"
     pagecolor="#888888"
     bordercolor="#666666"
     borderopacity="1.0"
     inkscape:pageopacity="0"
     inkscape:pageshadow="2"
     inkscape:zoom="3"
     inkscape:cx="-44.273421"
     inkscape:cy="41.407834"
     inkscape:document-units="px"
     inkscape:current-layer="layer1"
     showgrid="false"
     units="px"
     inkscape:window-width="1450"
     inkscape:window-height="838"
     inkscape:window-x="-8"
     inkscape:window-y="-8"
     inkscape:window-maximized="1" />
  <metadata
     id="metadata7">
    <rdf:RDF>
      <cc:Work
         rdf:about="">
        <dc:format>image/svg+xml</dc:format>
        <dc:type
           rdf:resource="http://purl.org/dc/dcmitype/StillImage" />
        <dc:title></dc:title>
      </cc:Work>
    </rdf:RDF>
  </metadata>
  <g
     inkscape:groupmode="layer"
     id="layer2"
     inkscape:label="Fondo"
     transform="translate(0,-962.36216)"
     style="display:inline" />
  <g
     inkscape:label="Capa 1"
     inkscape:groupmode="layer"
     id="layer1"
     transform="translate(0,-962.36216)"
     style="display:inline;opacity:0.5">
    <rect
       style="display:inline;fill:#88ff88;fill-opacity:1;stroke:none;stroke-width:1;stroke-miterlimit:4;stroke-dasharray:none;stroke-opacity:1"
       id="rect5594-0"
       width="40"
       height="90"
       x="-63.014328"
       y="970.72534" />
    <path
       inkscape:connector-curvature="0"
       style="display:inline;fill:#e6e6e6;fill-opacity:1;stroke:none;stroke-width:1.25812817;stroke-miterlimit:4;stroke-dasharray:none;stroke-opacity:1"
       d="m 29.400001,1068.6955 a 40.105739,42.222036 0 0 0 -40.000001,40 l 40.000001,0 40.000005,0 a 40.105739,42.222036 0 0 0 -40.000005,-40 z"
       id="path5577-6-3-3" />
    <path
       style="display:inline;opacity:0.5;fill:#ffffff;fill-opacity:1;stroke:none;stroke-width:1.25812817;stroke-miterlimit:4;stroke-dasharray:none;stroke-opacity:1"
       d="m 44,966.362 a 41.108379,43.277511 0 0 0 -40.9863281,40.758 2.5,2.5 0 0 0 -0.00977,0.1758 A 41.108379,43.277511 0 0 0 3,1007.3622 l 0.00195,0 a 2.5,2.5 0 0 0 0.3320344,1.25 2.5,2.5 0 0 0 1.9101566,1.2343 41.110333,43.276409 0 0 0 40.757812,38.5157 41.110333,43.276409 0 0 0 40.988281,-40.7579 2.5001188,2.4999363 0 0 0 0.0098,-0.1757 41.110333,43.276409 0 0 0 0,-0.064 2.5001188,2.4999363 0 0 0 -0.332031,-1.25 2.5001188,2.4999363 0 0 0 -1.91211,-1.2363 A 41.108379,43.277511 0 0 0 44,966.362 Z m 2.25,2.5 a 38.35111,40.638608 0 0 1 38.007812,36.0158 2.5001188,2.4999363 0 0 0 -1.005859,0.3203 2.5001188,2.4999363 0 0 0 -1.248047,2.166 38.352933,40.637573 0 0 1 -38.251953,38.4981 38.352933,40.637573 0 0 1 -38.009765,-36.0137 2.5,2.5 0 0 0 1.007812,-0.3203 2.5,2.5 0 0 0 1.248047,-2.166 l 0.00195,0 a 38.35111,40.638608 0 0 1 38.25,-38.5002 z"
       id="path5577-6-3-3-4"
       inkscape:connector-curvature="0" />
  </g>
</svg>
