<?xml version="1.0" encoding="UTF-8" standalone="no"?>
<!-- Created with Inkscape (http://www.inkscape.org/) -->

<svg
   xmlns:dc="http://purl.org/dc/elements/1.1/"
   xmlns:cc="http://creativecommons.org/ns#"
   xmlns:rdf="http://www.w3.org/1999/02/22-rdf-syntax-ns#"
   xmlns:svg="http://www.w3.org/2000/svg"
   xmlns="http://www.w3.org/2000/svg"
   xmlns:sodipodi="http://sodipodi.sourceforge.net/DTD/sodipodi-0.dtd"
   xmlns:inkscape="http://www.inkscape.org/namespaces/inkscape"
   width="200"
   height="200"
   viewBox="0 0 200 200"
   id="svg2"
   version="1.1"
   inkscape:version="0.91 r13725"
   sodipodi:docname="simbolo_escudo.svg">
  <defs
     id="defs4" />
  <sodipodi:namedview
     id="base"
     pagecolor="#888888"
     bordercolor="#666666"
     borderopacity="1.0"
     inkscape:pageopacity="0"
     inkscape:pageshadow="2"
     inkscape:zoom="3"
     inkscape:cx="30.681131"
     inkscape:cy="57.674566"
     inkscape:document-units="px"
     inkscape:current-layer="layer1"
     showgrid="false"
     units="px"
     inkscape:window-width="1450"
     inkscape:window-height="838"
     inkscape:window-x="-8"
     inkscape:window-y="-8"
     inkscape:window-maximized="1" />
  <metadata
     id="metadata7">
    <rdf:RDF>
      <cc:Work
         rdf:about="">
        <dc:format>image/svg+xml</dc:format>
        <dc:type
           rdf:resource="http://purl.org/dc/dcmitype/StillImage" />
        <dc:title></dc:title>
      </cc:Work>
    </rdf:RDF>
  </metadata>
  <g
     inkscape:groupmode="layer"
     id="layer2"
     inkscape:label="Fondo"
     transform="translate(0,-852.36216)"
     style="display:inline" />
  <g
     inkscape:label="Capa 1"
     inkscape:groupmode="layer"
     id="layer1"
     transform="translate(0,-852.36216)"
     style="display:inline;opacity:1">
    <path
       style="opacity:1;fill:#0000ff;fill-opacity:1;stroke:#0000ff;stroke-width:0;stroke-miterlimit:4;stroke-dasharray:none;stroke-opacity:1"
       d="M 39.974609,967.36221 A 49.999996,49.943729 0 0 1 10,977.44655 49.999996,49.943729 0 0 1 0,976.43402 l 0,1.01253 0.29882812,0 A 79.999992,79.909964 0 0 0 0,983.25836 79.999992,79.909964 0 0 0 39.974609,1052.3622 79.999992,79.909964 0 0 0 80,983.25836 79.999992,79.909964 0 0 0 79.703125,977.44655 l 0.296875,0 0,-1.06325 a 49.999996,49.943729 0 0 1 -10,1.06325 49.999996,49.943729 0 0 1 -30.025391,-10.08434 z"
       id="rect4492"
       inkscape:connector-curvature="0" />
    <rect
       style="display:inline;opacity:1;fill:#008080;fill-opacity:1;stroke:#0000ff;stroke-width:0;stroke-miterlimit:4;stroke-dasharray:none;stroke-opacity:1"
       id="rect4492-0"
       width="79.999992"
       height="99.999992"
       x="-269"
       y="933.76483" />
    <path
       inkscape:connector-curvature="0"
       style="display:inline;opacity:1;fill:#0000ff;fill-opacity:1;stroke:#0000ff;stroke-width:0;stroke-miterlimit:4;stroke-dasharray:none;stroke-opacity:1"
       d="M -229.02149,903.90346 A 99.999992,99.999992 0 0 0 -269,983.76479 99.999992,99.999992 0 0 0 -228.97852,1063.6262 99.999992,99.999992 0 0 0 -189,983.76479 99.999992,99.999992 0 0 0 -229.02149,903.90346 Z"
       id="circle4517-4" />
    <circle
       style="display:inline;opacity:1;fill:#000080;fill-opacity:1;stroke:#0000ff;stroke-width:0;stroke-miterlimit:4;stroke-dasharray:none;stroke-opacity:1"
       id="path4490-3"
       cx="-199"
       cy="933.76483"
       r="49.999996" />
    <circle
       cy="933.76483"
       cx="-259"
       id="circle4494-3"
       style="display:inline;opacity:1;fill:#000080;fill-opacity:1;stroke:#0000ff;stroke-width:0;stroke-miterlimit:4;stroke-dasharray:none;stroke-opacity:1"
       r="49.999996" />
  </g>
</svg>
